HIERARCHY
ROOT Joint1
{
	OFFSET 0.000000 0.000000 0.000000
	CHANNELS 6 Xposition Yposition Zposition Xrotation Yrotation Zrotation
	JOINT Joint2
	{
		OFFSET -0.000000 0.000000 1.456275
		CHANNELS 6 Xposition Yposition Zposition Xrotation Yrotation Zrotation
		JOINT Joint3
		{
			OFFSET -0.000000 0.000002 1.471446
			CHANNELS 6 Xposition Yposition Zposition Xrotation Yrotation Zrotation
			JOINT Joint4
			{
				OFFSET 0.625745 0.000000 0.917755
				CHANNELS 6 Xposition Yposition Zposition Xrotation Yrotation Zrotation
				JOINT Joint5
				{
					OFFSET -0.629534 0.000001 0.940221
					CHANNELS 6 Xposition Yposition Zposition Xrotation Yrotation Zrotation
					JOINT Joint6
					{
						OFFSET -0.000001 0.113772 1.960660
						CHANNELS 6 Xposition Yposition Zposition Xrotation Yrotation Zrotation
						JOINT Joint7
						{
							OFFSET -0.669733 -0.113771 0.388340
							CHANNELS 6 Xposition Yposition Zposition Xrotation Yrotation Zrotation
							End Site
							{
								OFFSET 0.005509 0.005509 0.438980
							}
						}
					}
				}
			}
		}
	}
}
MOTION
Frames: 17
Frame Time: 0.041667
0.000000 0.000000 0.000000 -0.000000 1.019410 -0.046741 -0.000000 -0.000000 1.456275 0.000000 -44.949844 -0.000000 -0.000000 0.000002 1.471446 0.000000 -1.133457 -0.046326 0.625745 0.000000 0.917755 0.000004 134.985520 -0.000001 -0.629534 0.000001 0.940221 -0.000000 1.709736 0.015718 -0.000001 0.113772 1.960660 -88.308540 89.959732 -0.003287 -0.669733 -0.113771 0.388341 -0.704710 3.566197 134.938160 
0.000000 0.000000 0.000000 -0.000000 1.019410 -0.177278 -0.000000 0.000000 1.456275 0.000000 -44.841896 -0.000000 -0.000000 0.000002 1.471445 0.000000 -1.133460 -0.104209 0.625745 0.000000 0.917755 0.000004 134.883518 -0.000001 -0.629534 0.000001 0.940221 0.000000 1.709736 0.106538 -0.000000 0.113772 1.960660 -88.306300 89.924146 -0.001617 -0.669733 -0.113771 0.388340 -0.703117 3.566194 134.848479 
0.000000 0.000000 0.000000 -0.000000 1.019410 -0.401456 -0.000000 0.000000 1.456275 0.000000 -44.656518 -0.000000 -0.000000 0.000002 1.471446 0.000000 -1.133460 -0.203616 0.625744 0.000000 0.917755 0.000004 134.708365 -0.000001 -0.629534 0.000001 0.940221 -0.000000 1.709737 0.262509 -0.000000 0.113772 1.960661 -88.305275 89.863023 -0.000957 -0.669733 -0.113771 0.388339 -0.700382 3.566184 134.694513 
0.000000 0.000000 0.000000 -0.000000 1.019410 -0.724689 -0.000000 0.000000 1.456275 -0.000000 -44.389242 0.000000 -0.000000 0.000002 1.471446 0.000000 -1.133457 -0.346946 0.625745 0.000000 0.917755 0.000004 134.455798 -0.000001 -0.629533 0.000001 0.940221 0.000000 1.709736 0.487397 -0.000001 0.113772 1.960660 -88.304668 89.774893 -0.000526 -0.669733 -0.113771 0.388340 -0.696438 3.566155 134.472478 
0.000000 0.000000 0.000000 -0.000000 1.019410 -1.152390 -0.000000 -0.000000 1.456275 -0.000000 -44.035575 0.000000 -0.000000 0.000002 1.471446 -0.000000 -1.133458 -0.536600 0.625745 0.000000 0.917755 0.000004 134.121624 -0.000001 -0.629534 0.000001 0.940221 0.000000 1.709736 0.784968 -0.000001 0.113772 1.960660 -88.304429 89.658288 -0.000337 -0.669733 -0.113771 0.388340 -0.691220 3.566093 134.178684 
0.000000 0.000000 0.000000 -0.000000 1.019410 -1.689973 -0.000000 0.000000 1.456275 -0.000000 -43.591043 0.000000 -0.000000 0.000002 1.471446 -0.000000 -1.133455 -0.774979 0.625745 0.000000 0.917755 0.000004 133.701554 -0.000001 -0.629533 0.000001 0.940221 -0.000000 1.709736 1.158990 -0.000001 0.113772 1.960660 -88.304278 89.511712 -0.000233 -0.669733 -0.113771 0.388340 -0.684663 3.565978 133.809430 
0.000000 0.000000 0.000000 -0.000000 1.019410 -2.342852 -0.000000 -0.000000 1.456275 -0.000000 -43.051174 -0.000000 -0.000000 0.000002 1.471446 0.000000 -1.133459 -1.064484 0.625745 0.000000 0.917755 0.000004 133.191448 -0.000001 -0.629534 0.000001 0.940221 0.000000 1.709736 1.613227 -0.000001 0.113772 1.960660 -88.304183 89.333711 -0.000183 -0.669733 -0.113771 0.388341 -0.676699 3.565782 133.360960 
0.000000 0.000000 0.000000 -0.000000 1.019410 -3.116440 -0.000000 -0.000000 1.456275 0.000000 -42.411496 -0.000000 -0.000000 0.000002 1.471446 0.000000 -1.133460 -1.407514 0.625745 0.000000 0.917755 0.000004 132.587004 -0.000001 -0.629533 0.000001 0.940221 -0.000001 1.709736 2.151448 -0.000001 0.113772 1.960661 -88.304094 89.122794 -0.000149 -0.669733 -0.113771 0.388340 -0.667267 3.565469 132.829612 
0.000000 0.000000 0.000000 -0.000000 1.019410 -4.016151 -0.000000 0.000000 1.456275 0.000000 -41.667528 -0.000000 -0.000000 0.000002 1.471446 0.000000 -1.133458 -1.806469 0.625745 0.000000 0.917755 0.000003 131.884013 -0.000001 -0.629534 0.000001 0.940221 -0.000000 1.709736 2.777419 -0.000001 0.113772 1.960660 -88.304053 88.877495 -0.000108 -0.669733 -0.113771 0.388339 -0.656299 3.564995 132.211589 
0.000000 0.000000 0.000000 -0.000000 1.019410 -5.032452 -0.000000 0.000000 1.456275 -0.000000 -40.827145 0.000000 -0.000000 0.000002 1.471446 0.000000 -1.133460 -2.257125 0.625745 0.000000 0.917754 0.000004 131.089922 -0.000001 -0.629533 0.000001 0.940221 -0.000000 1.709736 3.484505 -0.000001 0.113772 1.960660 -88.304026 88.600401 -0.000089 -0.669733 -0.113771 0.388340 -0.643919 3.564318 131.513489 
0.000000 0.000000 0.000000 -0.000000 1.019410 -6.096019 -0.000000 -0.000000 1.456275 0.000001 -39.947680 -0.000001 -0.000000 0.000002 1.471446 0.000000 -1.133459 -2.728737 0.625744 0.000000 0.917755 0.000005 130.258920 -0.000000 -0.629534 0.000001 0.940221 -0.000000 1.709736 4.224477 -0.000000 0.113772 1.960661 -88.303998 88.310425 -0.000081 -0.669733 -0.113771 0.388340 -0.630972 3.563447 130.782932 
0.000000 0.000000 0.000000 -0.000000 1.019410 -7.122580 -0.000000 0.000000 1.456275 0.000001 -39.098817 0.000001 -0.000000 0.000002 1.471446 0.000000 -1.133457 -3.183944 0.625745 0.000000 0.917755 0.000005 129.456796 -0.000002 -0.629534 0.000001 0.940221 -0.000000 1.709736 4.938704 -0.000000 0.113772 1.960660 -88.303978 88.030545 -0.000072 -0.669733 -0.113771 0.388340 -0.618486 3.562453 130.077797 
0.000000 0.000000 0.000000 -0.000000 1.019410 -8.027870 -0.000000 0.000000 1.456275 0.000001 -38.350228 -0.000000 -0.000000 0.000002 1.471446 0.000000 -1.133462 -3.585375 0.625744 0.000000 0.917755 0.000005 128.749448 -0.000003 -0.629534 0.000001 0.940221 0.000001 1.709736 5.568555 0.000000 0.113772 1.960661 -88.303971 87.783715 -0.000066 -0.669733 -0.113771 0.388340 -0.607487 3.561447 129.455963 
0.000000 0.000000 0.000000 -0.000000 1.019410 -8.779003 -0.000000 0.000000 1.456275 -0.000000 -37.729115 -0.000001 -0.000000 0.000002 1.471445 0.000000 -1.133460 -3.918448 0.625745 0.000000 0.917755 0.000004 128.162558 -0.000001 -0.629534 0.000001 0.940221 0.000000 1.709737 6.091152 0.000000 0.113772 1.960660 -88.303964 87.578919 -0.000048 -0.669733 -0.113771 0.388340 -0.598370 3.560521 128.940024 
0.000000 0.000000 0.000000 -0.000000 1.019410 -9.548634 -0.000000 -0.000000 1.456275 -0.000000 -37.092712 0.000000 -0.000000 0.000002 1.471445 0.000001 -1.133461 -4.259723 0.625745 0.000000 0.917755 0.000000 127.561200 -0.000001 -0.629534 0.000001 0.940221 -0.000000 1.709736 6.626622 -0.000001 0.113772 1.960661 -88.303950 87.369089 -0.000050 -0.669733 -0.113771 0.388340 -0.589037 3.559490 128.411354 
0.000000 0.000000 0.000000 -0.000000 1.019410 -10.560816 -0.000000 0.000000 1.456275 0.000001 -36.255737 -0.000000 -0.000001 0.000002 1.471446 0.000000 -1.133462 -4.708551 0.625745 0.000000 0.917755 -0.000000 126.770333 -0.000001 -0.629534 0.000001 0.940221 -0.000000 1.709736 7.330843 -0.000000 0.113772 1.960660 -88.303944 87.093122 -0.000052 -0.669733 -0.113771 0.388341 -0.576778 3.558002 127.716095 
0.000000 0.000000 0.000000 -0.000000 1.019410 -12.039591 -0.000000 0.000000 1.456275 -0.000000 -35.032932 0.000001 -0.000000 0.000002 1.471446 0.000001 -1.133463 -5.364280 0.625744 0.000000 0.917754 0.000006 125.614883 -0.000002 -0.629533 0.000001 0.940221 -0.000001 1.709737 8.359693 -0.000001 0.113772 1.960661 -88.303937 86.689943 -0.000036 -0.669733 -0.113771 0.388340 -0.558903 3.555560 126.700364 
